<svg width="159" height="35" viewBox="0 0 159 35" fill="none" xmlns="http://www.w3.org/2000/svg">
<path d="M19.584 28C19.32 27.136 19.02 26.248 18.684 25.336C18.372 24.424 18.06 23.512 17.748 22.6H8.02799C7.71599 23.512 7.39199 24.424 7.05599 25.336C6.74399 26.248 6.45599 27.136 6.19199 28H0.359985C1.29599 25.312 2.18399 22.828 3.02399 20.548C3.86399 18.268 4.67999 16.12 5.47199 14.104C6.28799 12.088 7.07999 10.18 7.84799 8.37996C8.63999 6.55596 9.45599 4.77996 10.296 3.05196H15.66C16.476 4.77996 17.28 6.55596 18.072 8.37996C18.864 10.18 19.656 12.088 20.448 14.104C21.264 16.12 22.092 18.268 22.932 20.548C23.772 22.828 24.66 25.312 25.596 28H19.584ZM12.852 8.70397C12.732 9.06396 12.552 9.55596 12.312 10.18C12.072 10.804 11.796 11.524 11.484 12.34C11.172 13.156 10.824 14.056 10.44 15.04C10.08 16.024 9.70799 17.056 9.32399 18.136H16.416C16.032 17.056 15.66 16.024 15.3 15.04C14.94 14.056 14.592 13.156 14.256 12.34C13.944 11.524 13.668 10.804 13.428 10.18C13.188 9.55596 12.996 9.06396 12.852 8.70397Z" fill="#0A5AF4"/>
<path d="M34.9453 28.36C33.3853 28.336 32.1133 28.168 31.1293 27.856C30.1693 27.544 29.4013 27.112 28.8253 26.56C28.2733 25.984 27.8893 25.3 27.6733 24.508C27.4813 23.692 27.3853 22.78 27.3853 21.772V0.927964L32.7493 0.0639648V20.692C32.7493 21.172 32.7853 21.604 32.8573 21.988C32.9293 22.372 33.0613 22.696 33.2533 22.96C33.4693 23.224 33.7693 23.44 34.1533 23.608C34.5373 23.776 35.0533 23.884 35.7013 23.932L34.9453 28.36Z" fill="#0A5AF4"/>
<path d="M42.2679 17.92C42.2679 20.92 43.4799 22.42 45.9039 22.42C46.4559 22.42 46.9719 22.348 47.4519 22.204C47.9319 22.06 48.3399 21.892 48.6759 21.7V13.132C48.4119 13.084 48.0999 13.048 47.7399 13.024C47.3799 12.976 46.9599 12.952 46.4799 12.952C45.0639 12.952 44.0079 13.42 43.3119 14.356C42.6159 15.292 42.2679 16.48 42.2679 17.92ZM54.0399 25.624C54.0399 28.72 53.2479 31.012 51.6639 32.5C50.1039 34.012 47.6799 34.768 44.3919 34.768C43.2399 34.768 42.0879 34.66 40.9359 34.444C39.7839 34.252 38.7159 33.988 37.7319 33.652L38.6679 29.152C39.5079 29.488 40.3839 29.752 41.2959 29.944C42.2319 30.136 43.2879 30.232 44.4639 30.232C45.9999 30.232 47.0799 29.896 47.7039 29.224C48.3519 28.552 48.6759 27.688 48.6759 26.632V25.948C48.0999 26.212 47.4999 26.416 46.8759 26.56C46.2759 26.68 45.6159 26.74 44.8959 26.74C42.2799 26.74 40.2759 25.972 38.8839 24.436C37.4919 22.876 36.7959 20.704 36.7959 17.92C36.7959 16.528 37.0119 15.268 37.4439 14.14C37.8759 12.988 38.4999 12.004 39.3159 11.188C40.1559 10.372 41.1759 9.74796 42.3759 9.31596C43.5759 8.85996 44.9319 8.63196 46.4439 8.63196C47.0919 8.63196 47.7519 8.66796 48.4239 8.73996C49.1199 8.78796 49.8039 8.85996 50.4759 8.95596C51.1479 9.05196 51.7839 9.17196 52.3839 9.31596C53.0079 9.43597 53.5599 9.56797 54.0399 9.71197V25.624Z" fill="#0A5AF4"/>
<path d="M75.7029 18.496C75.7029 19.984 75.4869 21.352 75.0549 22.6C74.6229 23.824 73.9989 24.88 73.1829 25.768C72.3669 26.632 71.3829 27.304 70.2309 27.784C69.1029 28.264 67.8309 28.504 66.4149 28.504C65.0229 28.504 63.7509 28.264 62.5989 27.784C61.4709 27.304 60.4989 26.632 59.6829 25.768C58.8669 24.88 58.2309 23.824 57.7749 22.6C57.3189 21.352 57.0909 19.984 57.0909 18.496C57.0909 17.008 57.3189 15.652 57.7749 14.428C58.2549 13.204 58.9029 12.16 59.7189 11.296C60.5589 10.432 61.5429 9.75997 62.6709 9.27996C63.8229 8.79996 65.0709 8.55997 66.4149 8.55997C67.7829 8.55997 69.0309 8.79996 70.1589 9.27996C71.3109 9.75997 72.2949 10.432 73.1109 11.296C73.9269 12.16 74.5629 13.204 75.0189 14.428C75.4749 15.652 75.7029 17.008 75.7029 18.496ZM70.2309 18.496C70.2309 16.84 69.8949 15.544 69.2229 14.608C68.5749 13.648 67.6389 13.168 66.4149 13.168C65.1909 13.168 64.2429 13.648 63.5709 14.608C62.8989 15.544 62.5629 16.84 62.5629 18.496C62.5629 20.152 62.8989 21.472 63.5709 22.456C64.2429 23.416 65.1909 23.896 66.4149 23.896C67.6389 23.896 68.5749 23.416 69.2229 22.456C69.8949 21.472 70.2309 20.152 70.2309 18.496Z" fill="#0A5AF4"/>
<path d="M86.3381 28.36C84.7781 28.336 83.5061 28.168 82.5221 27.856C81.5621 27.544 80.7941 27.112 80.2181 26.56C79.6661 25.984 79.2821 25.3 79.0661 24.508C78.8741 23.692 78.7781 22.78 78.7781 21.772V0.927964L84.1421 0.0639648V20.692C84.1421 21.172 84.1781 21.604 84.2501 21.988C84.3221 22.372 84.4541 22.696 84.6461 22.96C84.8621 23.224 85.1621 23.44 85.5461 23.608C85.9301 23.776 86.4461 23.884 87.0941 23.932L86.3381 28.36Z" fill="#0A5AF4"/>
<path d="M88.1887 18.676C88.1887 16.996 88.4407 15.532 88.9447 14.284C89.4727 13.012 90.1567 11.956 90.9967 11.116C91.8367 10.276 92.7967 9.63997 93.8767 9.20796C94.9807 8.77596 96.1087 8.55997 97.2607 8.55997C99.9487 8.55997 102.073 9.38796 103.633 11.044C105.193 12.676 105.973 15.088 105.973 18.28C105.973 18.592 105.961 18.94 105.937 19.324C105.913 19.684 105.889 20.008 105.865 20.296H93.6967C93.8167 21.4 94.3327 22.276 95.2447 22.924C96.1567 23.572 97.3807 23.896 98.9167 23.896C99.9007 23.896 100.861 23.812 101.797 23.644C102.757 23.452 103.537 23.224 104.137 22.96L104.857 27.316C104.569 27.46 104.185 27.604 103.705 27.748C103.225 27.892 102.685 28.012 102.085 28.108C101.509 28.228 100.885 28.324 100.213 28.396C99.5407 28.468 98.8687 28.504 98.1967 28.504C96.4927 28.504 95.0047 28.252 93.7327 27.748C92.4847 27.244 91.4407 26.56 90.6007 25.696C89.7847 24.808 89.1727 23.764 88.7647 22.564C88.3807 21.364 88.1887 20.068 88.1887 18.676ZM100.789 16.624C100.765 16.168 100.681 15.724 100.537 15.292C100.417 14.86 100.213 14.476 99.9247 14.14C99.6607 13.804 99.3127 13.528 98.8807 13.312C98.4727 13.096 97.9567 12.988 97.3327 12.988C96.7327 12.988 96.2167 13.096 95.7847 13.312C95.3527 13.504 94.9927 13.768 94.7047 14.104C94.4167 14.44 94.1887 14.836 94.0207 15.292C93.8767 15.724 93.7687 16.168 93.6967 16.624H100.789Z" fill="#0A5AF4"/>
<path d="M116.268 24.256C116.796 24.256 117.3 24.244 117.78 24.22C118.26 24.196 118.644 24.16 118.932 24.112V20.044C118.716 19.996 118.392 19.948 117.96 19.9C117.528 19.852 117.132 19.828 116.772 19.828C116.268 19.828 115.788 19.864 115.332 19.936C114.9 19.984 114.516 20.092 114.18 20.26C113.844 20.428 113.58 20.656 113.388 20.944C113.196 21.232 113.1 21.592 113.1 22.024C113.1 22.864 113.376 23.452 113.928 23.788C114.504 24.1 115.284 24.256 116.268 24.256ZM115.836 8.55997C117.42 8.55997 118.74 8.73996 119.796 9.09996C120.852 9.45996 121.692 9.97596 122.316 10.648C122.964 11.32 123.42 12.136 123.684 13.096C123.948 14.056 124.08 15.124 124.08 16.3V27.46C123.312 27.628 122.244 27.82 120.876 28.036C119.508 28.276 117.852 28.396 115.908 28.396C114.684 28.396 113.568 28.288 112.56 28.072C111.576 27.856 110.724 27.508 110.004 27.028C109.284 26.524 108.732 25.876 108.348 25.084C107.964 24.292 107.772 23.32 107.772 22.168C107.772 21.064 107.988 20.128 108.42 19.36C108.876 18.592 109.476 17.98 110.22 17.524C110.964 17.068 111.816 16.744 112.776 16.552C113.736 16.336 114.732 16.228 115.764 16.228C116.46 16.228 117.072 16.264 117.6 16.336C118.152 16.384 118.596 16.456 118.932 16.552V16.048C118.932 15.136 118.656 14.404 118.104 13.852C117.552 13.3 116.592 13.024 115.224 13.024C114.312 13.024 113.412 13.096 112.524 13.24C111.636 13.36 110.868 13.54 110.22 13.78L109.536 9.45996C109.848 9.36396 110.232 9.26796 110.688 9.17197C111.168 9.05197 111.684 8.95597 112.236 8.88396C112.788 8.78796 113.364 8.71597 113.964 8.66797C114.588 8.59597 115.212 8.55997 115.836 8.55997Z" fill="#0A5AF4"/>
<path d="M139.263 13.816C138.783 13.696 138.219 13.576 137.571 13.456C136.923 13.312 136.227 13.24 135.483 13.24C135.147 13.24 134.739 13.276 134.259 13.348C133.803 13.396 133.455 13.456 133.215 13.528V28H127.851V10.072C128.811 9.73596 129.939 9.42396 131.235 9.13596C132.555 8.82396 134.019 8.66797 135.627 8.66797C135.915 8.66797 136.263 8.69197 136.671 8.73996C137.079 8.76396 137.487 8.81196 137.895 8.88396C138.303 8.93196 138.711 9.00396 139.119 9.09996C139.527 9.17196 139.875 9.26797 140.163 9.38797L139.263 13.816Z" fill="#0A5AF4"/>
<path d="M141.958 9.71197C142.87 9.44796 144.046 9.20796 145.486 8.99197C146.926 8.75197 148.438 8.63196 150.022 8.63196C151.63 8.63196 152.962 8.84796 154.018 9.27996C155.098 9.68796 155.95 10.276 156.574 11.044C157.198 11.812 157.642 12.724 157.906 13.78C158.17 14.836 158.302 16.012 158.302 17.308V28H152.938V17.956C152.938 16.228 152.71 15.004 152.254 14.284C151.798 13.564 150.946 13.204 149.698 13.204C149.314 13.204 148.906 13.228 148.474 13.276C148.042 13.3 147.658 13.336 147.322 13.384V28H141.958V9.71197Z" fill="#0A5AF4"/>
</svg>
